:FULLY-SPECIFIED
:FORCE-ALL-JOINTS-BE-3DOF
:DEGREES
951
root 1.08714 15.2727 32.7456 6.90326 -3.03018 364.358
lfemur 7.05746 0.919911 4.74905
ltibia 0.00894629 0 0
lfoot -28.5851 -13.6544 0
ltoes -32.3633 0 0
rfemur -31.9599 -16.4907 -6.5668
rtibia 49.6246 0 0
rfoot -21.3842 4.57862 0
rtoes -42.1692 0 0
lowerback -2.38735 -0.803058 1.26059
upperback -1.2061 -1.09057 -6.68473
thorax -0.0611932 -0.580996 -7.71245
lowerneck -6.29075 1.07536 5.32185
upperneck 0.535065 0.954685 3.18285
head 1.22971 0.554001 0.125505
lclavicle -8.46112e-15 6.09682e-15 0
lhumerus -59.1391 -43.4582 112.399
lradius 55.3637 0 0
lwrist 25.9499 0 0
lhand 39.3277 23.9988 0
lfingers 7.12502 0 0
lthumb 61.8336 35.6832 0
rclavicle -8.46112e-15 6.09682e-15 0
rhumerus 2.77681 -27.9299 1.9852
rradius 29.0022 0 0
rwrist -11.2018 0 0
rhand -33.952 -50.2394 0
rfingers 7.12502 0 0
rthumb -7.13282 -800.088 0
952
root 1.07083 15.2625 32.7382 6.87033 -3.21237 364.255
lfemur 7.2189 1.0763 4.9005
ltibia 0.00111829 0 0
lfoot -28.706 -13.3226 0
ltoes -32.6484 0 0
rfemur -32.1697 -16.4772 -6.34859
rtibia 49.8348 0 0
rfoot -21.5865 4.62131 0
rtoes -42.084 0 0
lowerback -2.40042 -0.889397 1.31646
upperback -1.14346 -1.20454 -6.58985
thorax -0.00421084 -0.635981 -7.64535
lowerneck -6.20168 1.22376 5.47971
upperneck 0.467199 1.1511 3.11049
head 1.19557 0.648295 0.0820715
lclavicle -6.54426e-15 -7.83562e-16 0
lhumerus -59.1436 -43.438 112.497
lradius 55.3235 0 0
lwrist 26.2322 0 0
lhand 38.975 23.997 0
lfingers 7.12502 0 0
lthumb 61.5389 36.0438 0
rclavicle -6.54426e-15 -7.83562e-16 0
rhumerus 3.0594 -26.8825 2.36183
rradius 29.0064 0 0
rwrist -10.138 0 0
rhand -33.0129 -50.2846 0
rfingers 7.12502 0 0
rthumb -6.22654 -800.17 0
953
root 1.05753 15.2529 32.7303 6.8266 -3.42135 364.17
lfemur 7.39583 1.25075 5.01695
ltibia 0 0 0
lfoot -28.8242 -13.0103 0
ltoes -32.9027 0 0
rfemur -32.3714 -16.4053 -6.16964
rtibia 50.0221 0 0
rfoot -21.7576 4.64439 0
rtoes -42.0196 0 0
lowerback -2.40532 -0.962165 1.33844
upperback -1.08989 -1.30032 -6.49494
thorax 0.0421056 -0.681987 -7.55798
lowerneck -6.1171 1.35257 5.59306
upperneck 0.426627 1.3236 3.03492
head 1.17095 0.731268 0.0443343
lclavicle -2.98177e-16 -1.43125e-14 0
lhumerus -59.1613 -43.4609 112.641
lradius 55.3053 0 0
lwrist 26.5206 0 0
lhand 38.6117 24.0614 0
lfingers 7.12502 0 0
lthumb 61.2347 36.4768 0
rclavicle -2.98177e-16 -1.43125e-14 0
rhumerus 3.46276 -26.2543 2.48423
rradius 29.0263 0 0
rwrist -9.50186 0 0
rhand -32.44 -50.3388 0
rfingers 7.12502 0 0
rthumb -5.6736 -800.243 0
954
root 1.0493 15.2428 32.7208 6.73908 -3.69988 364.147
lfemur 7.62558 1.46324 5.06081
ltibia -5.6193e-15 0 0
lfoot -28.9281 -12.8262 0
ltoes -33.0311 0 0
rfemur -32.5711 -16.3164 -6.08665
rtibia 50.1967 0 0
rfoot -21.9148 4.7591 0
rtoes -41.9739 0 0
lowerback -2.33357 -0.974879 1.28018
upperback -1.06836 -1.31713 -6.42992
thorax 0.024847 -0.689942 -7.45297
lowerneck -6.05229 1.40142 5.6287
upperneck 0.432828 1.39047 3.03517
head 1.16286 0.76425 0.0400657
lclavicle -3.52684e-15 -1.81746e-15 0
lhumerus -59.2194 -43.6313 112.9
lradius 55.3474 0 0
lwrist 26.4783 0 0
lhand 38.398 24.09 0
lfingers 7.12502 0 0
lthumb 61.054 36.7111 0
rclavicle -3.52684e-15 -1.81746e-15 0
rhumerus 3.91392 -26.1648 2.27425
rradius 29.0569 0 0
rwrist -10.6319 0 0
rhand -32.7782 -50.1445 0
rfingers 7.12502 0 0
rthumb -6.0001 -800.039 0
955
root 1.04146 15.2319 32.7107 6.64183 -3.99372 364.136
lfemur 7.8652 1.6841 5.09649
ltibia -4.84039e-15 0 0
lfoot -29.0334 -12.6771 0
ltoes -33.1315 0 0
rfemur -32.7807 -16.2468 -6.018
rtibia 50.3832 0 0
rfoot -22.084 4.91532 0
rtoes -41.9215 0 0
lowerback -2.2397 -0.973134 1.20473
upperback -1.05447 -1.31516 -6.3751
thorax -0.010084 -0.688899 -7.34818
lowerneck -5.99758 1.43228 5.66225
upperneck 0.442549 1.43187 3.06851
head 1.15699 0.785284 0.0457688
lclavicle -4.37877e-15 4.05684e-15 0
lhumerus -59.2679 -43.8176 113.168
lradius 55.3753 0 0
lwrist 26.2905 0 0
lhand 38.2836 24.0342 0
lfingers 7.12502 0 0
lthumb 60.9573 36.7657 0
rclavicle -4.37877e-15 4.05684e-15 0
rhumerus 4.32037 -26.09 2.05608
rradius 29.0589 0 0
rwrist -11.7111 0 0
rhand -33.0701 -49.8748 0
rfingers 7.12502 0 0
rthumb -6.28181 -799.761 0
956
root 1.03421 15.2205 32.7002 6.5401 -4.291 364.137
lfemur 8.10453 1.90514 5.12417
ltibia 1.66888e-16 0 0
lfoot -29.1374 -12.5627 0
ltoes -33.2049 0 0
rfemur -32.9934 -16.1973 -5.96372
rtibia 50.5749 0 0
rfoot -22.2586 5.10325 0
rtoes -41.8638 0 0
lowerback -2.13052 -0.958899 1.1167
upperback -1.04762 -1.29698 -6.33058
thorax -0.0587312 -0.680063 -7.24657
lowerneck -5.95432 1.44685 5.69328
upperneck 0.454068 1.45022 3.12881
head 1.15313 0.795423 0.0596793
lclavicle -4.29879e-15 2.92092e-15 0
lhumerus -59.3029 -44.0076 113.43
lradius 55.3865 0 0
lwrist 25.9861 0 0
lhand 38.2596 23.909 0
lfingers 7.12502 0 0
lthumb 60.9371 36.6635 0
rclavicle -4.29879e-15 2.92092e-15 0
rhumerus 4.67291 -26.0319 1.83936
rradius 29.0334 0 0
rwrist -12.6643 0 0
rhand -33.2915 -49.553 0
rfingers 7.12502 0 0
rthumb -6.49562 -799.433 0
957
root 1.02775 15.2091 32.6897 6.4391 -4.57986 364.148
lfemur 8.33339 2.11815 5.14401
ltibia 7.23272e-15 0 0
lfoot -29.2371 -12.4827 0
ltoes -33.2524 0 0
rfemur -33.2025 -16.1689 -5.92385
rtibia 50.7651 0 0
rfoot -22.432 5.31306 0
rtoes -41.8023 0 0
lowerback -2.01286 -0.934144 1.0207
upperback -1.04724 -1.26513 -6.29641
thorax -0.117138 -0.664637 -7.1511
lowerneck -5.92386 1.44681 5.72137
upperneck 0.465665 1.44789 3.20993
head 1.15104 0.795718 0.0800332
lclavicle -4.73172e-15 -5.61465e-15 0
lhumerus -59.3204 -44.1889 113.677
lradius 55.3787 0 0
lwrist 25.5937 0 0
lhand 38.3174 23.7292 0
lfingers 7.12502 0 0
lthumb 60.9859 36.4275 0
rclavicle -4.73172e-15 -5.61465e-15 0
rhumerus 4.96235 -25.9925 1.63376
rradius 28.9815 0 0
rwrist -13.4163 0 0
rhand -33.4187 -49.2024 0
rfingers 7.12502 0 0
rthumb -6.61842 -799.078 0
